<svg width="32" height="32" viewBox="0 0 32 32" fill="none" xmlns="http://www.w3.org/2000/svg">
<g clip-path="url(#clip0_326_51)">
<path fill-rule="evenodd" clip-rule="evenodd" d="M16.008 0.333328C24.6567 0.337328 31.6667 7.34999 31.6667 16C31.6667 24.6447 24.6647 31.6547 16.0227 31.6667H15.9774C11.8624 31.6662 7.91403 30.0413 4.9907 27.1453C4.94241 27.1035 4.89718 27.0583 4.85537 27.01C1.94363 24.0712 0.317244 20.097 0.333371 15.96C0.355371 7.32933 7.35537 0.339328 15.9894 0.333328M3.05537 17.1987C3.28898 19.7655 4.28421 22.204 5.91337 24.2013L14.1147 16.0007L11.308 13.194C8.94737 15.2473 6.06604 16.7407 3.0547 17.1987M9.41604 11.3033C7.52004 12.9167 5.3127 14.0547 3.0867 14.4867C3.37123 12.0336 4.3521 9.71331 5.91337 7.79999L9.41604 11.3033ZM13.1927 11.308L15.9994 14.1147L24.202 5.91333C22.2046 4.28381 19.7659 3.28833 17.1987 3.05466C16.7407 6.066 15.2474 8.948 13.1934 11.308M14.4867 3.08733C14.0547 5.31333 12.9167 7.52133 11.3027 9.41733L7.7987 5.91333C9.71239 4.35182 12.0332 3.37161 14.4867 3.08733ZM26.0874 7.79799C27.7164 9.7951 28.7116 12.2334 28.9454 14.8C25.9334 15.2573 23.052 16.7507 20.6907 18.8047L17.8854 16L26.0874 7.79799ZM16 17.8867L18.8047 20.692C16.7507 23.052 15.258 25.934 14.8 28.9453C12.2339 28.7115 9.79619 27.7165 7.79937 26.088L16 17.8867ZM24.2007 26.088L20.6954 22.5827C19.082 24.4787 17.9434 26.6873 17.5114 28.9133C19.9652 28.6297 22.2865 27.6493 24.2007 26.088ZM22.5807 20.6967L26.0867 24.2027C27.6484 22.2886 28.6293 19.9673 28.9134 17.5133C26.6867 17.9447 24.478 19.0827 22.5814 20.6967" fill="#142038"/>
</g>
<defs>
<clipPath id="clip0_326_51">
<rect width="32" height="32" fill="white"/>
</clipPath>
</defs>
</svg>
