<svg width="16" height="16" viewBox="0 0 16 16" fill="none" xmlns="http://www.w3.org/2000/svg">
<path d="M8.49992 1.83069C8.49992 1.69808 8.44724 1.5709 8.35347 1.47714C8.2597 1.38337 8.13253 1.33069 7.99992 1.33069C7.86731 1.33069 7.74013 1.38337 7.64637 1.47714C7.5526 1.5709 7.49992 1.69808 7.49992 1.83069V2.66669H6.16659C5.85717 2.66669 5.56042 2.7896 5.34163 3.0084C5.12283 3.22719 4.99992 3.52394 4.99992 3.83336V5.27002C6.01325 5.17802 6.99992 5.96069 6.99992 7.09869V14.1667C6.99992 14.1845 6.99947 14.2018 6.99859 14.2187V14.6667H8.99859V13.8334H8.99992V8.83335C8.99992 8.34713 9.19307 7.88081 9.53689 7.53699C9.88071 7.19318 10.347 7.00002 10.8333 7.00002H10.9999V3.83336C10.9999 3.52394 10.877 3.22719 10.6582 3.0084C10.4394 2.7896 10.1427 2.66669 9.83325 2.66669H8.49992V1.83069ZM9.66525 14.6667H12.4999C12.8093 14.6667 13.1061 14.5438 13.3249 14.325C13.5437 14.1062 13.6666 13.8094 13.6666 13.5V8.83335C13.6666 8.52394 13.5437 8.22719 13.3249 8.0084C13.1061 7.7896 12.8093 7.66669 12.4999 7.66669H10.8333C10.5238 7.66669 10.2271 7.7896 10.0083 8.0084C9.7895 8.22719 9.66659 8.52394 9.66659 8.83335V13.8334H9.66525V14.6667ZM6.33325 13.8334H6.33192V14.6667H3.49992C3.1905 14.6667 2.89375 14.5438 2.67496 14.325C2.45617 14.1062 2.33325 13.8094 2.33325 13.5V8.19336C2.33325 7.80002 2.53125 7.43335 2.85992 7.21802L4.52659 6.12402C5.30192 5.61402 6.33325 6.17069 6.33325 7.09869V13.8334Z" fill="#E8EAED"/>
</svg>
