<svg width="16" height="16" viewBox="0 0 16 16" fill="none" xmlns="http://www.w3.org/2000/svg">
<path d="M14 3.19999C14.33 3.19999 14.5175 3.57749 14.32 3.83999L13.6 4.79999V9.19999C13.6 11.1875 11.9875 12.8 10 12.8H7.20002L6.04252 13.9575C5.78252 14.2175 5.38002 14.2675 5.06502 14.0775L2.63752 12.6225C2.21252 12.3675 2.26252 11.735 2.72252 11.55L5.60002 10.4C2.19502 9.37749 1.78752 5.84499 2.15002 3.99249C2.24002 3.54749 2.73252 3.38499 3.13252 3.60499L9.60002 7.19999V5.19999C9.60002 4.09499 10.495 3.19999 11.6 3.19999H14ZM11.6 4.59999C11.2675 4.59999 11 4.86749 11 5.19999C11 5.53249 11.2675 5.79999 11.6 5.79999C11.9325 5.79999 12.2 5.53249 12.2 5.19999C12.2 4.86749 11.9325 4.59999 11.6 4.59999ZM6.16252 1.35999C6.47252 1.01749 6.99502 1.13749 7.22502 1.53749L8.63502 3.99499C8.49002 4.35499 8.40502 4.74749 8.40002 5.15749L5.05252 3.29999C5.30502 2.50999 5.72752 1.83999 6.16252 1.35999Z" fill="#E8EAED"/>
</svg>
