<svg width="16" height="16" viewBox="0 0 16 16" fill="none" xmlns="http://www.w3.org/2000/svg">
<path d="M2.72197 3.45409C2.8668 3.53652 3.03068 3.57962 3.19733 3.57909C3.36397 3.57856 3.52758 3.53443 3.67188 3.45108C3.81619 3.36774 3.93617 3.24807 4.0199 3.10399C4.10363 2.9599 4.1482 2.79642 4.14917 2.62977H5.10917C5.11007 2.79651 5.15463 2.9601 5.23839 3.10427C5.32215 3.24845 5.44221 3.36817 5.58661 3.45154C5.73101 3.53491 5.89473 3.57901 6.06147 3.57946C6.22821 3.5799 6.39216 3.53668 6.53701 3.45409L7.01701 4.28481C7.28389 4.13569 7.60325 4.03713 7.92837 3.97889C7.90874 3.92129 7.88314 3.86497 7.85157 3.80993L7.36581 2.96961C7.24019 2.75155 7.03348 2.59198 6.79071 2.52568C6.54795 2.45939 6.28882 2.49174 6.06981 2.61569C6.06761 2.364 5.966 2.12339 5.78713 1.94632C5.60825 1.76924 5.36662 1.67006 5.11493 1.67041H4.14469C3.61989 1.67041 3.19429 2.09281 3.18981 2.61633C2.97074 2.49218 2.71145 2.45971 2.46853 2.52602C2.22562 2.59232 2.01878 2.75202 1.89317 2.97025L1.40805 3.80993C1.14565 4.26433 1.29925 4.84417 1.74981 5.10977C1.53277 5.23742 1.37504 5.44573 1.31101 5.68925C1.24698 5.93276 1.28187 6.19172 1.40805 6.40961L1.89317 7.24993C2.15557 7.70433 2.73413 7.86113 3.18981 7.60385C3.19365 7.99937 3.43813 8.33793 3.78373 8.47937C3.78181 8.11393 3.87333 7.74337 4.06981 7.40417L4.11333 7.32865C4.07291 7.18997 4.0016 7.06226 3.90474 6.95509C3.80789 6.84792 3.68802 6.76409 3.55412 6.7099C3.42023 6.6557 3.27579 6.63254 3.13167 6.64216C2.98754 6.65178 2.84747 6.69393 2.72197 6.76545L2.24197 5.93409C2.87237 5.56545 2.87237 4.65409 2.24197 4.28545L2.72197 3.45409Z" fill="#E8EAED"/>
<path d="M4.6298 6.06978C4.88441 6.06978 5.12859 5.96864 5.30862 5.7886C5.48866 5.60857 5.5898 5.36439 5.5898 5.10978C5.5898 4.85517 5.48866 4.61099 5.30862 4.43096C5.12859 4.25092 4.88441 4.14978 4.6298 4.14978C4.37519 4.14978 4.13101 4.25092 3.95098 4.43096C3.77094 4.61099 3.6698 4.85517 3.6698 5.10978C3.6698 5.36439 3.77094 5.60857 3.95098 5.7886C4.13101 5.96864 4.37519 6.06978 4.6298 6.06978Z" fill="#E8EAED"/>
<path fill-rule="evenodd" clip-rule="evenodd" d="M7.44958 9.6704C7.44958 9.15015 7.65625 8.65121 8.02412 8.28334C8.392 7.91547 8.89094 7.7088 9.41118 7.7088C9.93143 7.7088 10.4304 7.91547 10.7982 8.28334C11.1661 8.65121 11.3728 9.15015 11.3728 9.6704C11.3728 10.1906 11.1661 10.6896 10.7982 11.0575C10.4304 11.4253 9.93143 11.632 9.41118 11.632C8.89094 11.632 8.392 11.4253 8.02412 11.0575C7.65625 10.6896 7.44958 10.1906 7.44958 9.6704ZM9.41182 8.66944C9.28029 8.66944 9.15005 8.69535 9.02853 8.74568C8.90701 8.79602 8.79659 8.8698 8.70359 8.9628C8.61058 9.05581 8.5368 9.16623 8.48647 9.28775C8.43613 9.40927 8.41022 9.53951 8.41022 9.67104C8.41022 9.80257 8.43613 9.93282 8.48647 10.0543C8.5368 10.1759 8.61058 10.2863 8.70359 10.3793C8.79659 10.4723 8.90701 10.5461 9.02853 10.5964C9.15005 10.6467 9.28029 10.6726 9.41182 10.6726C9.67747 10.6726 9.93223 10.5671 10.1201 10.3793C10.3079 10.1914 10.4134 9.93668 10.4134 9.67104C10.4134 9.4054 10.3079 9.15064 10.1201 8.9628C9.93223 8.77497 9.67747 8.66944 9.41182 8.66944Z" fill="#E8EAED"/>
<path fill-rule="evenodd" clip-rule="evenodd" d="M4.90111 11.4579C4.82397 11.3245 4.77389 11.1771 4.75373 11.0243C4.73357 10.8715 4.74372 10.7162 4.7836 10.5673C4.82348 10.4184 4.89232 10.2789 4.98616 10.1566C5.08001 10.0343 5.19704 9.93174 5.33055 9.85471C5.36283 9.83597 5.38962 9.80909 5.40825 9.77674C5.42688 9.74439 5.43668 9.70772 5.43668 9.67039C5.43668 9.63307 5.42688 9.59639 5.40825 9.56405C5.38962 9.5317 5.36283 9.50481 5.33055 9.48607C5.06119 9.33041 4.86469 9.07412 4.78428 8.77359C4.70386 8.47306 4.74612 8.15289 4.90175 7.88351L5.60959 6.65727C5.76525 6.38809 6.02142 6.19171 6.32179 6.11131C6.62217 6.0309 6.94218 6.07305 7.21151 6.22847C7.24385 6.24729 7.28058 6.25724 7.318 6.25731C7.35542 6.25738 7.39219 6.24756 7.4246 6.22886C7.45701 6.21016 7.4839 6.18322 7.50256 6.15079C7.52122 6.11836 7.53099 6.08157 7.53087 6.04415C7.53087 5.39647 8.05567 4.87103 8.70335 4.87103H10.1197C10.768 4.87103 11.2928 5.39647 11.2928 6.04415C11.2928 6.20799 11.4701 6.31039 11.6115 6.22847C11.7448 6.15126 11.892 6.1011 12.0447 6.08086C12.1974 6.06062 12.3526 6.07071 12.5014 6.11054C12.6502 6.15037 12.7897 6.21917 12.9119 6.31298C13.0341 6.4068 13.1365 6.5238 13.2134 6.65727L13.9219 7.88479C13.999 8.01806 14.0491 8.16522 14.0693 8.31786C14.0895 8.4705 14.0794 8.62562 14.0395 8.77434C13.9997 8.92307 13.9309 9.06249 13.8372 9.18461C13.7434 9.30674 13.6265 9.40918 13.4931 9.48607C13.4607 9.50468 13.4337 9.53152 13.415 9.56389C13.3962 9.59625 13.3863 9.63299 13.3863 9.67039C13.3863 9.70779 13.3962 9.74453 13.415 9.7769C13.4337 9.80926 13.4607 9.83611 13.4931 9.85471C13.7623 10.0104 13.9587 10.2665 14.0391 10.5669C14.1195 10.8673 14.0773 11.1873 13.9219 11.4566L13.2147 12.6829C13.1377 12.8163 13.0351 12.9332 12.9129 13.027C12.7907 13.1208 12.6512 13.1896 12.5024 13.2295C12.3536 13.2694 12.1983 13.2796 12.0456 13.2595C11.8929 13.2393 11.7456 13.1893 11.6121 13.1123C11.5798 13.0935 11.543 13.0836 11.5056 13.0836C11.4681 13.0835 11.4313 13.0933 11.3989 13.112C11.3665 13.1307 11.3395 13.1576 11.3208 13.19C11.302 13.2224 11.2922 13.2592 11.2921 13.2966C11.2921 13.945 10.7673 14.4698 10.1197 14.4698H8.70399C8.39297 14.4698 8.09468 14.3462 7.87469 14.1264C7.65471 13.9065 7.53104 13.6083 7.53087 13.2973C7.53086 13.2598 7.52098 13.2231 7.50224 13.1907C7.48351 13.1582 7.45656 13.1313 7.42412 13.1127C7.39168 13.094 7.35489 13.0842 7.31745 13.0842C7.28002 13.0843 7.24326 13.0942 7.21087 13.113C6.94147 13.2683 6.6214 13.3104 6.32101 13.2298C6.02062 13.1493 5.7645 12.9528 5.60895 12.6835L4.90111 11.4579ZM5.81055 10.6861C5.78621 10.7001 5.76487 10.7187 5.74777 10.741C5.73066 10.7632 5.71812 10.7887 5.71086 10.8158C5.70361 10.8429 5.70178 10.8712 5.70549 10.899C5.7092 10.9268 5.71836 10.9536 5.73247 10.9779L6.44031 12.2035C6.49919 12.3059 6.62911 12.3405 6.73151 12.2816C7.51295 11.8304 8.49087 12.3942 8.49087 13.2973C8.49087 13.4144 8.58623 13.5098 8.70399 13.5098H10.1197C10.1762 13.5098 10.2304 13.4873 10.2704 13.4473C10.3103 13.4074 10.3328 13.3532 10.3328 13.2966C10.3328 12.3942 11.3101 11.8298 12.0921 12.281C12.1945 12.3398 12.3245 12.3046 12.3833 12.2029L13.0912 10.9766C13.1193 10.9277 13.1268 10.8697 13.1122 10.8152C13.0975 10.7608 13.0619 10.7143 13.0131 10.6861C12.2317 10.2349 12.231 9.10655 13.0131 8.65471C13.0373 8.64086 13.0586 8.62234 13.0756 8.60023C13.0926 8.57812 13.1051 8.55286 13.1123 8.5259C13.1195 8.49894 13.1213 8.47082 13.1175 8.44317C13.1138 8.41552 13.1046 8.38888 13.0905 8.36479L12.3821 7.13791C12.3683 7.11355 12.3498 7.09218 12.3276 7.07504C12.3055 7.0579 12.2802 7.04533 12.2531 7.03807C12.2261 7.0308 12.1979 7.02899 12.1701 7.03272C12.1424 7.03646 12.1157 7.04567 12.0915 7.05983C11.3101 7.51167 10.3328 6.94655 10.3328 6.04415C10.3328 5.98763 10.3103 5.93342 10.2704 5.89345C10.2304 5.85349 10.1762 5.83103 10.1197 5.83103H8.70399C8.67598 5.83086 8.64822 5.83626 8.62232 5.84692C8.59643 5.85758 8.57291 5.87328 8.55313 5.89311C8.53336 5.91295 8.51773 5.93651 8.50715 5.96244C8.49657 5.98837 8.49125 6.01615 8.49151 6.04415C8.49151 6.94655 7.51423 7.51103 6.73215 7.05919C6.68324 7.03112 6.6252 7.02357 6.57074 7.0382C6.51627 7.05284 6.46983 7.08846 6.44159 7.13727L5.73375 8.36351C5.71974 8.38776 5.71066 8.41452 5.707 8.44228C5.70335 8.47004 5.7052 8.49825 5.71245 8.52529C5.7197 8.55233 5.73221 8.57768 5.74926 8.59989C5.76631 8.6221 5.78757 8.64072 5.81183 8.65471C6.59391 9.10591 6.59263 10.2355 5.81183 10.6861" fill="#E8EAED"/>
</svg>
