<svg width="30" height="36" viewBox="0 0 30 36" fill="none" xmlns="http://www.w3.org/2000/svg">
<path fill-rule="evenodd" clip-rule="evenodd" d="M0 8.4375C0 7.98995 0.148158 7.56072 0.411881 7.24426C0.675604 6.92779 1.03329 6.75 1.40625 6.75H28.5938C28.9667 6.75 29.3244 6.92779 29.5881 7.24426C29.8518 7.56072 30 7.98995 30 8.4375C30 8.88505 29.8518 9.31428 29.5881 9.63074C29.3244 9.94721 28.9667 10.125 28.5938 10.125H1.40625C1.03329 10.125 0.675604 9.94721 0.411881 9.63074C0.148158 9.31428 0 8.88505 0 8.4375ZM0 18C0 17.5524 0.148158 17.1232 0.411881 16.8068C0.675604 16.4903 1.03329 16.3125 1.40625 16.3125H28.5938C28.9667 16.3125 29.3244 16.4903 29.5881 16.8068C29.8518 17.1232 30 17.5524 30 18C30 18.4476 29.8518 18.8768 29.5881 19.1932C29.3244 19.5097 28.9667 19.6875 28.5938 19.6875H1.40625C1.03329 19.6875 0.675604 19.5097 0.411881 19.1932C0.148158 18.8768 0 18.4476 0 18ZM1.40625 25.875C1.03329 25.875 0.675604 26.0528 0.411881 26.3693C0.148158 26.6857 0 27.1149 0 27.5625C0 28.0101 0.148158 28.4393 0.411881 28.7557C0.675604 29.0722 1.03329 29.25 1.40625 29.25H28.5938C28.9667 29.25 29.3244 29.0722 29.5881 28.7557C29.8518 28.4393 30 28.0101 30 27.5625C30 27.1149 29.8518 26.6857 29.5881 26.3693C29.3244 26.0528 28.9667 25.875 28.5938 25.875H1.40625Z" fill="#1A2A4B"/>
</svg>
