<svg width="32" height="32" viewBox="0 0 32 32" fill="none" xmlns="http://www.w3.org/2000/svg">
<path d="M26.6667 22.6667C27.4311 22.6667 28.0756 22.9333 28.6 23.4667C29.1245 24 29.3822 24.6222 29.3733 25.3333L18.6667 29.3333L9.33335 26.6667V14.6667H11.9333L21.6267 18.2533C22.32 18.5289 22.6667 19.0267 22.6667 19.7467C22.6667 20.1644 22.5156 20.5289 22.2133 20.84C21.9111 21.1511 21.5289 21.3155 21.0667 21.3333H17.3333L15 20.44L14.56 21.6933L17.3333 22.6667H26.6667ZM21.3333 4.30666C22.2756 3.21332 23.4756 2.66666 24.9333 2.66666C26.1422 2.66666 27.1645 3.1111 28 3.99999C28.8356 4.88888 29.28 5.9111 29.3333 7.06666C29.3333 7.98221 28.8889 9.07555 28 10.3467C27.1111 11.6178 26.2356 12.68 25.3733 13.5333C24.5111 14.3867 23.1645 15.6533 21.3333 17.3333C19.4845 15.6533 18.1245 14.3867 17.2533 13.5333C16.3822 12.68 15.5067 11.6178 14.6267 10.3467C13.7467 9.07555 13.3156 7.98221 13.3333 7.06666C13.3333 5.85777 13.7645 4.83555 14.6267 3.99999C15.4889 3.16443 16.5289 2.71999 17.7467 2.66666C19.1689 2.66666 20.3645 3.21332 21.3333 4.30666ZM1.31201 14.6667H6.66668V29.3333H1.31201V14.6667Z" fill="#142038"/>
</svg>
