<svg width="43" height="45" viewBox="0 0 43 45" fill="none" xmlns="http://www.w3.org/2000/svg">
<path fill-rule="evenodd" clip-rule="evenodd" d="M27.8767 25.7325C30.7203 25.7325 33.4475 26.8621 35.4582 28.8729C37.4689 30.8836 38.5985 33.6107 38.5985 36.4544V40.7431C38.5985 41.3118 38.3726 41.8573 37.9705 42.2594C37.5683 42.6616 37.0229 42.8875 36.4542 42.8875C35.8854 42.8875 35.34 42.6616 34.9379 42.2594C34.5357 41.8573 34.3098 41.3118 34.3098 40.7431V36.4544C34.3098 34.7482 33.632 33.1119 32.4256 31.9055C31.2192 30.699 29.5829 30.0212 27.8767 30.0212H10.7218C9.01565 30.0212 7.37937 30.699 6.17293 31.9055C4.9665 33.1119 4.28873 34.7482 4.28873 36.4544V40.7431C4.28873 41.3118 4.0628 41.8573 3.66066 42.2594C3.25851 42.6616 2.71308 42.8875 2.14436 42.8875C1.57564 42.8875 1.03022 42.6616 0.628069 42.2594C0.225923 41.8573 0 41.3118 0 40.7431V36.4544C0 33.6107 1.12962 30.8836 3.14035 28.8729C5.15108 26.8621 7.87821 25.7325 10.7218 25.7325H27.8767ZM36.4542 12.8662C37.0229 12.8662 37.5683 13.0922 37.9705 13.4943C38.3726 13.8965 38.5985 14.4419 38.5985 15.0106V17.155H40.7429C41.3116 17.155 41.857 17.3809 42.2592 17.7831C42.6613 18.1852 42.8873 18.7306 42.8873 19.2994C42.8873 19.8681 42.6613 20.4135 42.2592 20.8157C41.857 21.2178 41.3116 21.4437 40.7429 21.4437H38.5985V23.5881C38.5985 24.1568 38.3726 24.7023 37.9705 25.1044C37.5683 25.5066 37.0229 25.7325 36.4542 25.7325C35.8854 25.7325 35.34 25.5066 34.9379 25.1044C34.5357 24.7023 34.3098 24.1568 34.3098 23.5881V21.4437H32.1654C31.5967 21.4437 31.0513 21.2178 30.6491 20.8157C30.247 20.4135 30.0211 19.8681 30.0211 19.2994C30.0211 18.7306 30.247 18.1852 30.6491 17.7831C31.0513 17.3809 31.5967 17.155 32.1654 17.155H34.3098V15.0106C34.3098 14.4419 34.5357 13.8965 34.9379 13.4943C35.34 13.0922 35.8854 12.8662 36.4542 12.8662ZM19.2993 0C22.1429 0 24.87 1.12962 26.8807 3.14036C28.8915 5.1511 30.0211 7.87825 30.0211 10.7219C30.0211 13.5655 28.8915 16.2926 26.8807 18.3034C24.87 20.3141 22.1429 21.4437 19.2993 21.4437C16.4557 21.4437 13.7285 20.3141 11.7178 18.3034C9.70707 16.2926 8.57745 13.5655 8.57745 10.7219C8.57745 7.87825 9.70707 5.1511 11.7178 3.14036C13.7285 1.12962 16.4557 0 19.2993 0ZM19.2993 4.28875C18.4545 4.28875 17.6179 4.45515 16.8374 4.77844C16.0569 5.10174 15.3478 5.5756 14.7504 6.17297C14.153 6.77034 13.6792 7.47952 13.3559 8.26002C13.0326 9.04052 12.8662 9.87706 12.8662 10.7219C12.8662 11.5667 13.0326 12.4032 13.3559 13.1837C13.6792 13.9642 14.153 14.6734 14.7504 15.2708C15.3478 15.8681 16.0569 16.342 16.8374 16.6653C17.6179 16.9886 18.4545 17.155 19.2993 17.155C21.0054 17.155 22.6417 16.4772 23.8481 15.2708C25.0546 14.0643 25.7324 12.428 25.7324 10.7219C25.7324 9.0157 25.0546 7.37941 23.8481 6.17297C22.6417 4.96652 21.0054 4.28875 19.2993 4.28875Z" fill="#142038"/>
</svg>
